<svg width="32" height="32" viewBox="0 0 32 32" fill="none" xmlns="http://www.w3.org/2000/svg">
<g clip-path="url(#clip0_3_563)">
<path d="M16.0001 0.138062C11.6323 0.138062 7.89668 1.69112 4.79323 4.79725C1.68979 7.90338 0.138062 11.6422 0.138062 16.0138C0.138062 20.3854 1.68979 24.1243 4.79323 27.2304C7.89668 30.3365 11.6323 31.8896 16.0001 31.8896C20.3679 31.8896 24.1036 30.3365 27.207 27.2304C30.3105 24.1243 31.8622 20.3854 31.8622 16.0138C31.8622 11.6422 30.3105 7.90338 27.207 4.79725C24.1036 1.69112 20.3679 0.138062 16.0001 0.138062ZM16.0001 26.8507C13.0116 26.8507 10.4599 25.7924 8.34496 23.6756C6.23002 21.5588 5.17254 19.0049 5.17254 16.0138C5.17254 13.0227 6.23002 10.4688 8.34496 8.35204C10.4599 6.23527 13.0116 5.17689 16.0001 5.17689C18.9886 5.17689 21.5404 6.23527 23.6553 8.35204C25.7702 10.4688 26.8277 13.0227 26.8277 16.0138C26.8277 19.0049 25.7702 21.5588 23.6553 23.6756C21.5404 25.7924 18.9886 26.8507 16.0001 26.8507Z" fill="#ED6D25"/>
</g>
<defs>
<clipPath id="clip0_3_563">
<rect width="32" height="32" fill="white"/>
</clipPath>
</defs>
</svg>
